<svg width="200" height="200" viewBox="0 0 200 200" fill="none" xmlns="http://www.w3.org/2000/svg">
<rect width="200" height="200" rx="100" fill="#F2676E"/>
<path d="M62.08 107.14C61.1467 107.14 60.3067 106.98 59.56 106.66C58.8133 106.327 58.2267 105.86 57.8 105.26C57.3733 104.66 57.16 103.96 57.16 103.16H59.6C59.6533 103.76 59.8867 104.253 60.3 104.64C60.7267 105.027 61.32 105.22 62.08 105.22C62.8667 105.22 63.48 105.033 63.92 104.66C64.36 104.273 64.58 103.78 64.58 103.18C64.58 102.713 64.44 102.333 64.16 102.04C63.8933 101.747 63.5533 101.52 63.14 101.36C62.74 101.2 62.18 101.027 61.46 100.84C60.5533 100.6 59.8133 100.36 59.24 100.12C58.68 99.8667 58.2 99.48 57.8 98.96C57.4 98.44 57.2 97.7467 57.2 96.88C57.2 96.08 57.4 95.38 57.8 94.78C58.2 94.18 58.76 93.72 59.48 93.4C60.2 93.08 61.0333 92.92 61.98 92.92C63.3267 92.92 64.4267 93.26 65.28 93.94C66.1467 94.6067 66.6267 95.5267 66.72 96.7H64.2C64.16 96.1933 63.92 95.76 63.48 95.4C63.04 95.04 62.46 94.86 61.74 94.86C61.0867 94.86 60.5533 95.0267 60.14 95.36C59.7267 95.6933 59.52 96.1733 59.52 96.8C59.52 97.2267 59.6467 97.58 59.9 97.86C60.1667 98.1267 60.5 98.34 60.9 98.5C61.3 98.66 61.8467 98.8333 62.54 99.02C63.46 99.2733 64.2067 99.5267 64.78 99.78C65.3667 100.033 65.86 100.427 66.26 100.96C66.6733 101.48 66.88 102.18 66.88 103.06C66.88 103.767 66.6867 104.433 66.3 105.06C65.9267 105.687 65.3733 106.193 64.64 106.58C63.92 106.953 63.0667 107.14 62.08 107.14ZM79.5503 95.98V107H77.2703V105.7C76.9103 106.153 76.437 106.513 75.8503 106.78C75.277 107.033 74.6636 107.16 74.0103 107.16C73.1436 107.16 72.3636 106.98 71.6703 106.62C70.9903 106.26 70.4503 105.727 70.0503 105.02C69.6636 104.313 69.4703 103.46 69.4703 102.46V95.98H71.7303V102.12C71.7303 103.107 71.977 103.867 72.4703 104.4C72.9636 104.92 73.637 105.18 74.4903 105.18C75.3436 105.18 76.017 104.92 76.5103 104.4C77.017 103.867 77.2703 103.107 77.2703 102.12V95.98H79.5503ZM81.7986 101.44C81.7986 100.333 82.0253 99.3533 82.4786 98.5C82.9453 97.6467 83.5719 96.9867 84.3586 96.52C85.1586 96.04 86.0386 95.8 86.9986 95.8C87.8653 95.8 88.6186 95.9733 89.2586 96.32C89.9119 96.6533 90.4319 97.0733 90.8186 97.58V95.98H93.1186V107H90.8186V105.36C90.4319 105.88 89.9053 106.313 89.2386 106.66C88.5719 107.007 87.8119 107.18 86.9586 107.18C86.0119 107.18 85.1453 106.94 84.3586 106.46C83.5719 105.967 82.9453 105.287 82.4786 104.42C82.0253 103.54 81.7986 102.547 81.7986 101.44ZM90.8186 101.48C90.8186 100.72 90.6586 100.06 90.3386 99.5C90.0319 98.94 89.6253 98.5133 89.1186 98.22C88.6119 97.9267 88.0653 97.78 87.4786 97.78C86.8919 97.78 86.3453 97.9267 85.8386 98.22C85.3319 98.5 84.9186 98.92 84.5986 99.48C84.2919 100.027 84.1386 100.68 84.1386 101.44C84.1386 102.2 84.2919 102.867 84.5986 103.44C84.9186 104.013 85.3319 104.453 85.8386 104.76C86.3586 105.053 86.9053 105.2 87.4786 105.2C88.0653 105.2 88.6119 105.053 89.1186 104.76C89.6253 104.467 90.0319 104.04 90.3386 103.48C90.6586 102.907 90.8186 102.24 90.8186 101.48ZM109.489 93.1V94.96H103.589V99.06H108.189V100.92H103.589V107H101.309V93.1H109.489ZM116.382 107.18C115.342 107.18 114.402 106.947 113.562 106.48C112.722 106 112.062 105.333 111.582 104.48C111.102 103.613 110.862 102.613 110.862 101.48C110.862 100.36 111.108 99.3667 111.602 98.5C112.095 97.6333 112.768 96.9667 113.622 96.5C114.475 96.0333 115.428 95.8 116.482 95.8C117.535 95.8 118.488 96.0333 119.342 96.5C120.195 96.9667 120.868 97.6333 121.362 98.5C121.855 99.3667 122.102 100.36 122.102 101.48C122.102 102.6 121.848 103.593 121.342 104.46C120.835 105.327 120.142 106 119.262 106.48C118.395 106.947 117.435 107.18 116.382 107.18ZM116.382 105.2C116.968 105.2 117.515 105.06 118.022 104.78C118.542 104.5 118.962 104.08 119.282 103.52C119.602 102.96 119.762 102.28 119.762 101.48C119.762 100.68 119.608 100.007 119.302 99.46C118.995 98.9 118.588 98.48 118.082 98.2C117.575 97.92 117.028 97.78 116.442 97.78C115.855 97.78 115.308 97.92 114.802 98.2C114.308 98.48 113.915 98.9 113.622 99.46C113.328 100.007 113.182 100.68 113.182 101.48C113.182 102.667 113.482 103.587 114.082 104.24C114.695 104.88 115.462 105.2 116.382 105.2ZM127.015 97.84V103.94C127.015 104.353 127.109 104.653 127.295 104.84C127.495 105.013 127.829 105.1 128.295 105.1H129.695V107H127.895C126.869 107 126.082 106.76 125.535 106.28C124.989 105.8 124.715 105.02 124.715 103.94V97.84H123.415V95.98H124.715V93.24H127.015V95.98H129.695V97.84H127.015ZM136.577 107.18C135.537 107.18 134.597 106.947 133.757 106.48C132.917 106 132.257 105.333 131.777 104.48C131.297 103.613 131.057 102.613 131.057 101.48C131.057 100.36 131.304 99.3667 131.797 98.5C132.29 97.6333 132.964 96.9667 133.817 96.5C134.67 96.0333 135.624 95.8 136.677 95.8C137.73 95.8 138.684 96.0333 139.537 96.5C140.39 96.9667 141.064 97.6333 141.557 98.5C142.05 99.3667 142.297 100.36 142.297 101.48C142.297 102.6 142.044 103.593 141.537 104.46C141.03 105.327 140.337 106 139.457 106.48C138.59 106.947 137.63 107.18 136.577 107.18ZM136.577 105.2C137.164 105.2 137.71 105.06 138.217 104.78C138.737 104.5 139.157 104.08 139.477 103.52C139.797 102.96 139.957 102.28 139.957 101.48C139.957 100.68 139.804 100.007 139.497 99.46C139.19 98.9 138.784 98.48 138.277 98.2C137.77 97.92 137.224 97.78 136.637 97.78C136.05 97.78 135.504 97.92 134.997 98.2C134.504 98.48 134.11 98.9 133.817 99.46C133.524 100.007 133.377 100.68 133.377 101.48C133.377 102.667 133.677 103.587 134.277 104.24C134.89 104.88 135.657 105.2 136.577 105.2Z" fill="white"/>
</svg>
